<mxfile host="65bd71144e">
    <diagram id="fQ0JmHKr2INVG1e-5YvD" name="Page-1">
        <mxGraphModel dx="1332" dy="2112" grid="1" gridSize="10" guides="1" tooltips="1" connect="1" arrows="1" fold="1" page="1" pageScale="1" pageWidth="850" pageHeight="1100" math="0" shadow="0">
            <root>
                <mxCell id="0"/>
                <mxCell id="1" parent="0"/>
                <mxCell id="168" value="" style="rounded=0;whiteSpace=wrap;html=1;fillColor=#f5f5f5;strokeColor=#666666;fontColor=#333333;" vertex="1" parent="1">
                    <mxGeometry x="350" y="-750" width="1243" height="660" as="geometry"/>
                </mxCell>
                <mxCell id="81" value="&lt;font color=&quot;#000000&quot;&gt;MQTT&lt;/font&gt;" style="shape=cylinder3;whiteSpace=wrap;html=1;boundedLbl=1;backgroundOutline=1;size=15;fillColor=#6a00ff;strokeColor=#FFFFFF;fontColor=#ffffff;" parent="1" vertex="1">
                    <mxGeometry x="650" y="-560" width="130" height="80" as="geometry"/>
                </mxCell>
                <mxCell id="117" value="" style="group" parent="1" vertex="1" connectable="0">
                    <mxGeometry x="890" y="-560" width="270" height="107.5" as="geometry"/>
                </mxCell>
                <mxCell id="118" value="&lt;b&gt;&lt;font style=&quot;font-size: 16px;&quot;&gt;Web&lt;/font&gt;&lt;/b&gt;" style="rounded=0;whiteSpace=wrap;html=1;fillColor=#dae8fc;strokeColor=#6c8ebf;fontColor=#000000;" parent="117" vertex="1">
                    <mxGeometry y="8.636363636363637" width="180" height="86.36363636363636" as="geometry"/>
                </mxCell>
                <mxCell id="119" value="Dahboard monitoring" style="rounded=0;whiteSpace=wrap;html=1;fillColor=#0050ef;strokeColor=#001DBC;fontColor=#ffffff;" parent="117" vertex="1">
                    <mxGeometry width="180" height="25.90909090909091" as="geometry"/>
                </mxCell>
                <mxCell id="157" style="edgeStyle=none;html=1;entryX=1;entryY=0.5;entryDx=0;entryDy=0;startSize=9;endSize=9;fillColor=#0050ef;strokeColor=#001DBC;" parent="1" source="124" target="118" edge="1">
                    <mxGeometry relative="1" as="geometry"/>
                </mxCell>
                <mxCell id="124" value="Web server" style="shape=cylinder3;whiteSpace=wrap;html=1;boundedLbl=1;backgroundOutline=1;size=15;fontColor=#ffffff;fillColor=#0050ef;strokeColor=#001DBC;" parent="1" vertex="1">
                    <mxGeometry x="1150" y="-548.1800000000001" width="132.5" height="80" as="geometry"/>
                </mxCell>
                <mxCell id="130" style="edgeStyle=none;html=1;entryX=0;entryY=0.5;entryDx=0;entryDy=0;entryPerimeter=0;fontColor=#FFFFFF;fillColor=#0050ef;strokeColor=#001DBC;endSize=9;startSize=9;" parent="1" source="128" target="81" edge="1">
                    <mxGeometry relative="1" as="geometry">
                        <Array as="points">
                            <mxPoint x="617" y="-520"/>
                        </Array>
                    </mxGeometry>
                </mxCell>
                <mxCell id="128" value="Bak sapah 1" style="shape=cube;whiteSpace=wrap;html=1;boundedLbl=1;backgroundOutline=1;darkOpacity=0.05;darkOpacity2=0.1;fontColor=#ffffff;fillColor=#60a917;strokeColor=#2D7600;" parent="1" vertex="1">
                    <mxGeometry x="557" y="-360" width="120" height="80" as="geometry"/>
                </mxCell>
                <mxCell id="131" style="edgeStyle=none;html=1;entryX=0.5;entryY=1;entryDx=0;entryDy=0;entryPerimeter=0;fontColor=#FFFFFF;fillColor=#0050ef;strokeColor=#001DBC;endSize=9;startSize=9;" parent="1" source="129" target="81" edge="1">
                    <mxGeometry relative="1" as="geometry">
                        <Array as="points">
                            <mxPoint x="780" y="-420"/>
                            <mxPoint x="715" y="-420"/>
                        </Array>
                    </mxGeometry>
                </mxCell>
                <mxCell id="129" value="Bak sapah 1" style="shape=cube;whiteSpace=wrap;html=1;boundedLbl=1;backgroundOutline=1;darkOpacity=0.05;darkOpacity2=0.1;fontColor=#ffffff;fillColor=#60a917;strokeColor=#2D7600;" parent="1" vertex="1">
                    <mxGeometry x="720" y="-360" width="120" height="80" as="geometry"/>
                </mxCell>
                <mxCell id="140" value="&lt;span style=&quot;&quot;&gt;Web server untuk menjalan kan website&amp;nbsp;&lt;/span&gt;" style="rounded=1;whiteSpace=wrap;html=1;fontColor=#ffffff;arcSize=28;fillColor=#1ba1e2;strokeColor=#006EAF;" parent="1" vertex="1">
                    <mxGeometry x="1136.88" y="-450" width="158.75" height="40" as="geometry"/>
                </mxCell>
                <mxCell id="147" value="&lt;span style=&quot;&quot;&gt;Untuk website bisa di akses di dashboard dan mobile&amp;nbsp;&lt;/span&gt;" style="rounded=1;whiteSpace=wrap;html=1;fontColor=#ffffff;arcSize=26;fillColor=#1ba1e2;strokeColor=#006EAF;" parent="1" vertex="1">
                    <mxGeometry x="890" y="-460" width="180" height="60" as="geometry"/>
                </mxCell>
                <mxCell id="159" style="edgeStyle=none;html=1;entryX=1;entryY=0;entryDx=0;entryDy=52.5;entryPerimeter=0;startSize=9;endSize=9;fillColor=#0050ef;strokeColor=#001DBC;" parent="1" source="118" target="81" edge="1">
                    <mxGeometry relative="1" as="geometry"/>
                </mxCell>
                <mxCell id="166" value="Setiap tong sampah connect ke MQTT Broker" style="rounded=1;whiteSpace=wrap;html=1;fontColor=#ffffff;arcSize=23;fillColor=#1ba1e2;strokeColor=#006EAF;" parent="1" vertex="1">
                    <mxGeometry x="553" y="-270" width="297.5" height="40" as="geometry"/>
                </mxCell>
            </root>
        </mxGraphModel>
    </diagram>
</mxfile>